/* XPM */
static const char *playgroundpointtopointjointadd[] = {
/* columns rows colors chars-per-pixel */
"32 32 3 1",
"  c black",
". c #ED1C24",
"X c gray100",
/* pixels */
"XXX   XXXXXXXXXXXXXXXXXXXXXXXXXX",
"X  ...  XXXXXXXXXXXXXXXXXXXXXXXX",
"X ..... XXXXXXXXXXXXXXXXXXXXXXXX",
" ....... XXXXXXXXXXXXXXXXXXXXXXX",
" ....... XXXXXXXXXXXXXXXXXXXXXXX",
" ....... XXXXXXXXXXXXXXXXXXXXXXX",
"X ..... XXXXXXXXXXXXXXXXXXXXXXXX",
"X  ...  XXXXXXXXXXXXXXXXXXXXXXXX",
"XXX   XX XXXXXXXXXXXXXXXXXXXXXXX",
"XXXXXXXXX XXXXXXXXXXXXXXXXXXXXXX",
"XXXXXXXXXX XXXXXXXXXXXXXXXXXXXXX",
"XXXXXXXXXXX XXXXXXXXXXXXXXXXXXXX",
"XXXXXXXXXXXX XXXXXXXXXXXXXXXXXXX",
"XXXXXXXXXXXXX XXXXXXXXXXXXXXXXXX",
"XXXXXXXXXXXXXX XXXXXXXXXXXXXXXXX",
"XXXXXXXXXXXXXXX XXXXXXXXXXXXXXXX",
"XXXXXXXXXXXXXXXX XXXXXXXXXXXXXXX",
"XXXXXXXXXXXXXXXXX XXXXXXXXXXXXXX",
"XXXXXXXXXXXXXXXXXX XXXXXXXXXXXXX",
"XXXXXXXXXXXXXXXXXXX XXXXXXXXXXXX",
"XXXXXXXXXXXXXXXXXXXX XXXXXXXXXXX",
"XXXXXXXXXXXXXXXXXXXXX XXXXXXXXXX",
"XXXXXXXXXXXXXXXXXXXXXX XX   XXXX",
"XXXXXXXXXXXXXXXXXXXXXXX  ...  XX",
"XXXXXXXXXXXXXXXXXXXXXXX ..... XX",
"XXXXXXXXXXXXXXXXXXXXXX ....... X",
"XXXXXXXXXXXXXXXXXXXXXX ....... X",
"XXXXXXXXXXXXXXXXXXXXXX ....... X",
"XXXXXXXXXXXXXXXXXXXXXXX ..... XX",
"XXXXXXXXXXXXXXXXXXXXXXX  ...  XX",
"XXXXXXXXXXXXXXXXXXXXXXXXX   XXXX",
"XXXXXXXXXXXXXXXXXXXXXXXXXXXXXXXX"
};
