/* XPM */
static const char *playgroundconeadd[] = {
/* columns rows colors chars-per-pixel */
"32 32 3 1",
"  c #464646",
". c #FF7E00",
"X c gray100",
/* pixels */
"XXXXXXXXXXXXXXXXXXXXXXXXXXXXXXXX",
"XXXXXXXXXXXXXXXXXXXXXXXXXXXXXXXX",
"XXXXXXXXXXXXXXX XXXXXXXXXXXXXXXX",
"XXXXXXXXXXXXXX . XXXXXXXXXXXXXXX",
"XXXXXXXXXXXXXX .. XXXXXXXXXXXXXX",
"XXXXXXXXXXXXX ... XXXXXXXXXXXXXX",
"XXXXXXXXXXXX ..... XXXXXXXXXXXXX",
"XXXXXXXXXXXX ..... XXXXXXXXXXXXX",
"XXXXXXXXXXX ....... XXXXXXXXXXXX",
"XXXXXXXXXX ......... XXXXXXXXXXX",
"XXXXXXXXXX ......... XXXXXXXXXXX",
"XXXXXXXXX ........... XXXXXXXXXX",
"XXXXXXXXX ............ XXXXXXXXX",
"XXXXXXXX ............. XXXXXXXXX",
"XXXXXXX ............... XXXXXXXX",
"XXXXXXX ............... XXXXXXXX",
"XXXXXX ................. XXXXXXX",
"XXXXX ....           .... XXXXXX",
"XXXXX .   ...........   . XXXXXX",
"XXXX   .................   XXXXX",
"XXXX ..................... XXXXX",
"XXXX ..................... XXXXX",
"XXXXX  .................  XXXXXX",
"XXXXXXX   ...........   XXXXXXXX",
"XXXXXXXXXX           XXXXXXXXXXX",
"XXXXXXXXXXXXXXXXXXXXXXXXXXXXXXXX",
"XXXXXXXXXXXXXXXXXXXXXXXXXXXXXXXX",
"XXXXXXXXXXXXXXXXXXXXXXXXXXXXXXXX",
"XXXXXXXXXXXXXXXXXXXXXXXXXXXXXXXX",
"XXXXXXXXXXXXXXXXXXXXXXXXXXXXXXXX",
"XXXXXXXXXXXXXXXXXXXXXXXXXXXXXXXX",
"XXXXXXXXXXXXXXXXXXXXXXXXXXXXXXXX"
};
