/* XPM */
static const char *playgroundcapsuleadd[] = {
/* columns rows colors chars-per-pixel */
"32 32 2 1",
"  c #FF7E00",
". c gray100",
/* pixels */
"................................",
"................................",
"............     ...............",
"..........         .............",
"..........         .............",
".........           ............",
".........           ............",
"........             ...........",
"........             ...........",
"........             ...........",
"........             ...........",
"........             ...........",
"........             ...........",
"........             ...........",
"........             ...........",
"........             ...........",
"........             ...........",
"........             ...........",
"........             ...........",
"........             ...........",
"........             ...........",
"........             ...........",
"........             ...........",
"........             ...........",
".........           ............",
".........           ............",
"..........         .............",
"..........         .............",
"............     ...............",
"................................",
"................................",
"................................"
};
