/* XPM */
static char *playgroundmultipleadd[] = {
/* columns rows colors chars-per-pixel */
"32 32 3 1",
"  c black",
". c #FF7E00",
"X c gray100",
/* pixels */
"XXXXX     XXX     XX     XXXXXXX",
"XXXX ..... X .....  ..... XXXXXX",
"XXX ....... ......  ...... XXXXX",
"XX ......... ....... ...... XXXX",
"XX ......... ....... ...... XXXX",
"X ........... ....... ...... XXX",
"X ........... ....... ...... XXX",
"X ........... ....... ...... XXX",
"XX ......... ....... ...... XXXX",
"XX ......... ....... ...... XXXX",
"XXX ....... ......  ...... XXXXX",
"XXXX ..... . .....  ..... . XXXX",
"XXX .     ...     ..     ... XXX",
"XXX ......... ....... ...... XXX",
"XX ........... ....... ...... XX",
"XX ........... ....... ...... XX",
"XX ........... ....... ...... XX",
"XXX ......... ....... ...... XXX",
"XXX ......... ....... ...... XXX",
"XXXX ....... ......  ......  XXX",
"XXXX  ..... . .....  ..... .. XX",
"XXXX .     ...     ..     ... XX",
"XXX ........... ....... ...... X",
"XXX ........... ....... ...... X",
"XXX ........... ....... ...... X",
"XXXX ......... ....... ...... XX",
"XXXX ......... ....... ...... XX",
"XXXXX ....... ......  ...... XXX",
"XXXXXX ..... X .....  ..... XXXX",
"XXXXXXX     XXX     XX     XXXXX",
"XXXXXXXXXXXXXXXXXXXXXXXXXXXXXXXX",
"XXXXXXXXXXXXXXXXXXXXXXXXXXXXXXXX"
};
