/* XPM */
static const char *playgroundcylinderadd[] = {
/* columns rows colors chars-per-pixel */
"32 32 3 1",
"  c black",
". c #FF7E00",
"X c gray100",
/* pixels */
"XXXXXXXXXXXXXXXXXXXXXXXXXXXXXXXX",
"XXXXXXXXXXXXXXXXXXXXXXXXXXXXXXXX",
"XXXXXXXXXXXXXXXXXXXXXXXXXXXXXXXX",
"XXXXXXXXXXXXXXXXXXXXXXXXXXXXXXXX",
"XXXXXXXX   XXXXXXXXXXXXXXXXXXXXX",
"XXXXX   ..   XXXXXXXXXXXXXXXXXXX",
"XXXX .......  XXXXXXXXXXXXXXXXXX",
"XXXX ........  XXXXXXXXXXXXXXXXX",
"XXXX .......... XXXXXXXXXXXXXXXX",
"XXX ............  XXXXXXXXXXXXXX",
"XXX .............. XXXXXXXXXXXXX",
"XXXX .............. XXXXXXXXXXXX",
"XXXX ...............  XXXXXXXXXX",
"XXXX ................. XXXXXXXXX",
"XXXXX  ................ XXXXXXXX",
"XXXXXX ...............    XXXXXX",
"XXXXXXX  ..........   ..   XXXXX",
"XXXXXXXXX ........ ........ XXXX",
"XXXXXXXXXX ....... ........ XXXX",
"XXXXXXXXXXX ...... ........ XXXX",
"XXXXXXXXXXXX .... .......... XXX",
"XXXXXXXXXXXXX ... .......... XXX",
"XXXXXXXXXXXXXX  .. ........ XXXX",
"XXXXXXXXXXXXXXXX . ........ XXXX",
"XXXXXXXXXXXXXXXXX  ........ XXXX",
"XXXXXXXXXXXXXXXXXX    ..   XXXXX",
"XXXXXXXXXXXXXXXXXXXXXX  XXXXXXXX",
"XXXXXXXXXXXXXXXXXXXXXXXXXXXXXXXX",
"XXXXXXXXXXXXXXXXXXXXXXXXXXXXXXXX",
"XXXXXXXXXXXXXXXXXXXXXXXXXXXXXXXX",
"XXXXXXXXXXXXXXXXXXXXXXXXXXXXXXXX",
"XXXXXXXXXXXXXXXXXXXXXXXXXXXXXXXX"
};
