/* XPM */
static const char *playgroundcubeadd[] = {
/* columns rows colors chars-per-pixel */
"32 32 3 1",
"  c black",
". c #ED1C24",
"X c #FF7E00",
/* pixels */
"                                ",
"                                ",
"                                ",
"                                ",
"                                ",
"            .................   ",
"          ..XXXXXXXXXXXXXX.X.   ",
"      ....XXXXXXXXXXXXXX..XX.   ",
"    ..XXXXXXXXXXXXXXXX..XXXX.   ",
"   ...................XXXXXX.   ",
"   .XXXXXXXXXXXXXXXX.XXXXXXX.   ",
"   .XXXXXXXXXXXXXXXX.XXXXXXX.   ",
"   .XXXXXXXXXXXXXXXX.XXXXXXX.   ",
"   .XXXXXXXXXXXXXXXX.XXXXXXX.   ",
"   .XXXXXXXXXXXXXXXX.XXXXXXX.   ",
"   .XXXXXXXXXXXXXXXX.XXXXXXX.   ",
"   .XXXXXXXXXXXXXXXX.XXXXXXX.   ",
"   .XXXXXXXXXXXXXXXX.XXXXXXX.   ",
"   .XXXXXXXXXXXXXXXX.XXXXXXX.   ",
"   .XXXXXXXXXXXXXXXX.XXXXXXX.   ",
"   .XXXXXXXXXXXXXXXX.XXXXXXX.   ",
"   .XXXXXXXXXXXXXXXX.XXXXX..    ",
"   .XXXXXXXXXXXXXXXX.XXXX.      ",
"   .XXXXXXXXXXXXXXXX.XXX.       ",
"   .XXXXXXXXXXXXXXXX.X..        ",
"   ...................          ",
"                                ",
"                                ",
"                                ",
"                                ",
"                                ",
"                                "
};
