/* XPM */
static char *playgroundhingeadd[] = {
/* columns rows colors chars-per-pixel */
"32 32 3 1",
"  c black",
". c #FF7E00",
"X c gray100",
/* pixels */
"XXXXXXXXXXXXXXXXXXXXXXXXXXXXXXXX",
"XXXXXXXXXXXXXXXXXXXXXXXXXXXXXXXX",
"XXXXXXXXXXXXXXXXXXXXXXXXXXXXXXXX",
"XXXXXXXXXXXXXXXXXXXXXXXXXXXXXXXX",
"XXXXXXXXXXXXXXXXXXXXXXXXXXXXXXXX",
"XXXXXXXXXXXXX     XXXXXXXXXXXXXX",
"XXXXXXXXXX   .. ..   XXXXXXXXXXX",
"XXXXXXXXX ..... ..... XXXXXXXXXX",
"XXXXXXX  ...... ......  XXXXXXXX",
"XXXXXXX  ...... ......  XXXXXXXX",
"XXXXXX .. ..... ..... .. XXXXXXX",
"XXXXX .... .... .... .... XXXXXX",
"XXXXX ..... ... ... ..... XXXXXX",
"XXXXX ...... .. .. ...... XXXXXX",
"XXXX ........     ........ XXXXX",
"XXXX ........ ... ........ XXXXX",
"XXXX          ...          XXXXX",
"XXXX ........ ... ........ XXXXX",
"XXXX ........     ........ XXXXX",
"XXXXX ...... .. .. ...... XXXXXX",
"XXXXX ..... ... ... ..... XXXXXX",
"XXXXX .... .... .... .... XXXXXX",
"XXXXXX .. ..... ..... .. XXXXXXX",
"XXXXXXX  ...... ......  XXXXXXXX",
"XXXXXXX  ...... ......  XXXXXXXX",
"XXXXXXXXX ..... ..... XXXXXXXXXX",
"XXXXXXXXXX   .. ..   XXXXXXXXXXX",
"XXXXXXXXXXXXX     XXXXXXXXXXXXXX",
"XXXXXXXXXXXXXXXXXXXXXXXXXXXXXXXX",
"XXXXXXXXXXXXXXXXXXXXXXXXXXXXXXXX",
"XXXXXXXXXXXXXXXXXXXXXXXXXXXXXXXX",
"XXXXXXXXXXXXXXXXXXXXXXXXXXXXXXXX"
};
